<svg xmlns="http://www.w3.org/2000/svg" viewBox="0 0 24 16">
	<path d="M0 0h24v16H0z" fill="#f00" />
	<path d="M0 0h12v8H0z" fill="#00a" />

	<path transform="rotate(15 , 6 , 1)" d="M6 1v2h1" fill="#fff" />
	<path transform="rotate(-15 , 6 , 1)" d="M6 1v2h-1" fill="#fff" />

	<path transform="rotate(15 , 6 , 7)" d="M6 7v-2h-1" fill="#fff" />
	<path transform="rotate(-15 , 6 , 7)" d="M6 7v-2h1" fill="#fff" />

	<path transform="rotate(15 , 9 , 4)" d="M9 4h-2v1" fill="#fff" />
	<path transform="rotate(-15 , 9 , 4)" d="M9 4h-2v-1" fill="#fff" />

	<path transform="rotate(15 , 3 , 4)" d="M3 4h2v-1" fill="#fff" />
	<path transform="rotate(-15 , 3 , 4)" d="M3 4h2v1" fill="#fff" />
	<g transform="rotate(30 , 6 , 4)">
		<path transform="rotate(15 , 6 , 7)" d="M6 7v-2h-1" fill="#fff" />
		<path transform="rotate(-15 , 6 , 7)" d="M6 7v-2h1" fill="#fff" />
	</g>
	<g transform="rotate(60 , 6 , 4)">
		<path transform="rotate(15 , 6 , 7)" d="M6 7v-2h-1" fill="#fff" />
		<path transform="rotate(-15 , 6 , 7)" d="M6 7v-2h1" fill="#fff" />
	</g>
	<g transform="rotate(30 , 6 , 4)">
		<path transform="rotate(15 , 9 , 4)" d="M9 4h-2v1" fill="#fff" />
		<path transform="rotate(-15 , 9 , 4)" d="M9 4h-2v-1" fill="#fff" />
	</g>
	<g transform="rotate(60 , 6 , 4)">
		<path transform="rotate(15 , 9 , 4)" d="M9 4h-2v1" fill="#fff" />
		<path transform="rotate(-15 , 9 , 4)" d="M9 4h-2v-1" fill="#fff" />
	</g>
	<g transform="rotate(30 , 6 , 4)">
		<path transform="rotate(15 , 3 , 4)" d="M3 4h2v-1" fill="#fff" />
		<path transform="rotate(-15 , 3 , 4)" d="M3 4h2v1" fill="#fff" />
	</g>
	<g transform="rotate(60 , 6 , 4)">
		<path transform="rotate(15 , 3 , 4)" d="M3 4h2v-1" fill="#fff" />
		<path transform="rotate(-15 , 3 , 4)" d="M3 4h2v1" fill="#fff" />
	</g>
	<g transform="rotate(30 , 6 , 4)">
		<path transform="rotate(15 , 6 , 1)" d="M6 1v2h1" fill="#fff" />
		<path transform="rotate(-15 , 6 , 1)" d="M6 1v2h-1" fill="#fff" />
	</g>
	<g transform="rotate(60 , 6 , 4)">
		<path transform="rotate(15 , 6 , 1)" d="M6 1v2h1" fill="#fff" />
		<path transform="rotate(-15 , 6 , 1)" d="M6 1v2h-1" fill="#fff" />
	</g>
	<path d="M6 4m1.6 0a1.6 1.6 0 1 0-3.2 0a1.6 1.6 0 1 0 3.2 0" fill="#00a" />
	<path d="M6 4m1.5 0a1.5 1.5 0 1 0-3 0a1.5 1.5 0 1 0 3 0" fill="#fff" />
</svg>
